<?xml version="1.0" encoding="UTF-8"?>
<svg id="_圖層_2" data-name="圖層 2" xmlns="http://www.w3.org/2000/svg" viewBox="0 0 137.61 26.92">
  <defs>
    <style>
      .cls-1 {
        fill: #ba914b;
        stroke-width: 0px;
      }
    </style>
  </defs>
  <g id="_圖層_3" data-name="圖層 3">
    <g>
      <g>
        <path class="cls-1" d="M26.95,13.44c-.06,3.5-1.21,6.55-3.55,9.1-2.41,2.63-5.43,4.1-8.98,4.34-3.89.26-7.29-.99-10.15-3.63-1.93-1.79-3.21-3.98-3.82-6.54-.16-.65-.22-1.32-.36-1.98-.08-.38-.06-.76-.07-1.15-.04-1.61.25-3.17.8-4.68,1.31-3.54,3.7-6.12,7.13-7.68C11.13-.22,14.42-.38,17.75.72c4.72,1.56,8.21,5.67,9.01,10.58.05.32.1.65.12.98.03.4.04.8.06,1.16ZM13.54,26.43c7.05.02,12.95-5.86,12.9-13.05-.04-7.05-5.87-12.89-12.94-12.87C6.34.53.5,6.33.5,13.46c0,7.15,5.85,12.97,13.04,12.97Z"/>
        <path class="cls-1" d="M13.58,5.15c4.62.07,8.28,3.82,8.21,8.41-.07,4.63-3.82,8.29-8.43,8.22-4.6-.07-8.26-3.84-8.2-8.43.06-4.6,3.84-8.27,8.42-8.2ZM19.15,18.76s.06.04.08.06c.02-.05.04-.11.07-.15.15-.19.32-.38.46-.58,2.12-2.91,2.03-6.8-.26-9.58-1.45-1.76-3.33-2.71-5.61-2.86-.1,0-.18-.01-.18.13,0,.36,0,.71-.02,1.07,0,.15.06.2.21.2.65,0,1.31-.01,1.96,0,.16,0,.37.06.48.16.17.17.38.4.4.62.05.55.03,1.12,0,1.68,0,.1-.15.24-.26.27-.14.04-.22-.1-.23-.24-.02-.15-.09-.18-.22-.17-.56,0-1.12,0-1.68,0-.13,0-.22-.04-.26-.17-.03-.14,0-.25.13-.32.05-.03.13-.03.19-.03.52,0,1.03,0,1.55,0,.05,0,.11.02.14,0,.05-.04.11-.11.11-.17,0-.06-.05-.16-.1-.17-.17-.04-.34-.06-.52-.06-.42,0-.83.03-1.25.04-.16,0-.26-.11-.27-.25,0-.14.1-.26.25-.27.19-.02.38-.04.57-.04.39,0,.78.02,1.17.03.05,0,.11-.05.16-.08-.03-.06-.05-.14-.1-.16-.15-.06-.31-.13-.47-.13-.6-.02-1.21,0-1.81,0-.14,0-.15.08-.15.19,0,.53.01,1.07,0,1.6,0,.12-.06.25-.13.34-.1.13-.26.08-.3-.08-.03-.12-.04-.24-.05-.36,0-.5,0-1,0-1.5,0-.13-.04-.2-.17-.2-.7,0-1.39,0-2.09,0-.17,0-.28.1-.27.23.01.18.16.16.27.16.5,0,1,0,1.5,0,.06,0,.12,0,.18.01.13.03.24.18.22.31-.02.15-.14.15-.25.16-.17.02-.34.05-.51.05-.42-.01-.83-.05-1.24-.07-.05,0-.14.02-.16.06-.09.17,0,.32.19.32.46,0,.91,0,1.37,0,.11,0,.23-.03.33,0,.11.04.22.13.27.23.06.12-.06.21-.16.25-.1.04-.22.08-.33.08-.49,0-.98,0-1.47,0-.12,0-.21.02-.24.16-.03.15-.18.21-.31.19-.07,0-.13-.14-.18-.22-.03-.05-.01-.12-.01-.18,0-.42,0-.85,0-1.27,0-.32.13-.58.35-.79.23-.21.53-.26.83-.27.45,0,.91,0,1.36,0,.1,0,.2,0,.29.02.19.03.21.02.21-.18,0-.33.01-.67.02-1,0-.21,0-.21-.21-.2-2,.14-3.7.91-5.12,2.33-2.66,2.66-3.02,6.88-.85,9.96.03.04.06.08.09.12.01,0,.03-.01.04-.02,0-.06,0-.13,0-.19,0-.43-.02-.86,0-1.28.02-.21.11-.44.22-.62.14-.24.4-.33.68-.33.14,0,.28.02.41,0,.16-.03.38-.04.47-.14.18-.21.17-.5.07-.76-.1-.24-.31-.29-.54-.29-.15,0-.29.05-.43.05-.17,0-.35-.05-.52-.05-.15,0-.25-.07-.31-.2-.08-.16.02-.28.1-.41.08-.13.17-.05.26-.04.07,0,.14.01.21.01.28,0,.56,0,.84,0,.19,0,.36.07.49.21.26.27.39.59.45.95.1.53-.36,1.29-1.03,1.31-.16,0-.33,0-.49,0-.24,0-.33.08-.36.31,0,.07-.03.14-.04.21-.11.57-.12,1.13.02,1.7.05.2.13.27.34.27.65,0,1.3,0,1.94,0,.15,0,.21-.07.21-.21.01-.61.04-1.22.04-1.82,0-.47-.06-.94-.05-1.41,0-.66.04-1.32.06-1.97,0-.28-.05-.35-.34-.36-.71-.03-1.42-.05-2.13-.08-.09,0-.18.02-.26,0-.08-.03-.16-.1-.19-.17-.08-.24.09-.45.35-.44.74.02,1.48.04,2.22.06.2,0,.25-.03.26-.23.02-.37.02-.73.02-1.1,0-.05-.08-.14-.13-.15-.19-.04-.38-.07-.57-.07-.59,0-1.18,0-1.76,0-.34,0-.46-.14-.4-.47.03-.16.09-.23.27-.22.91.01,1.81.01,2.72.01.14,0,.28-.04.42-.06.17-.03.34-.09.51-.1.52-.01,1.05,0,1.57,0,.91,0,1.81,0,2.72,0,.2,0,.41.01.6.06.14.04.32.12.39.24.12.2.2.44.25.68.04.19.04.4,0,.59-.04.2-.04.38,0,.58.03.11,0,.23,0,.37.19-.08.27.04.36.15.05.06.13.14.2.14.33,0,.66,0,.99-.03.24-.02.46,0,.67.1.18.09.38.38.37.58,0,.21-.21.5-.42.56-.2.06-.4.08-.6.13-.07.02-.12.08-.18.13.06.04.12.12.18.13.16.02.33,0,.49,0,.26,0,.4.1.51.4-.15.04-.29.1-.43.12-.19.02-.38,0-.58,0-.36,0-.66-.29-.65-.65,0-.39.3-.7.66-.69.13,0,.25,0,.38,0,.13,0,.19-.11.1-.21-.04-.05-.13-.08-.2-.09-.36,0-.71,0-1.07,0-.16,0-.21.06-.18.22.08.44-.03.86-.22,1.25-.05.11-.12.22-.28.16-.16-.06-.19-.17-.14-.34.1-.35.24-.69.18-1.07-.04-.24-.13-.44-.3-.67-.04.12-.08.19-.09.26-.01.11,0,.22,0,.33-.02.2-.02.41-.09.6-.13.36-.29.51-.71.51-.49,0-.98-.01-1.47,0-.25,0-.49.04-.73.07-.15.02-.23.13-.21.25.07.35.15.69.22,1.04.07.33.16.66.18,1,.03.49,0,.99,0,1.48,0,.05,0,.11-.02.16-.1.26-.21.51-.32.77-.06.15-.15.21-.32.21-1.46,0-2.92,0-4.38,0h-.2s0,.03,0,.05c1.12.93,2.39,1.51,3.83,1.73,1.26.19,2.5.08,3.71-.34-.02-.14-.05-.26-.05-.38-.02-.48-.04-.97-.05-1.45,0-.3-.02-.59,0-.89.02-.18.1-.36.14-.54.06-.22-.03-.35-.25-.36-.38-.01-.76-.03-1.14-.03-.25,0-.35.09-.37.34,0,.08.02.17.03.26.04.26.11.53.12.79.01.23-.04.46-.05.69-.02.56-.02,1.12-.04,1.68,0,.06-.07.16-.12.17-.11.03-.25.05-.29-.1-.03-.1-.04-.21-.04-.32,0-.15.05-.3.05-.46.01-.68.02-1.36.02-2.04,0-.12-.01-.26-.06-.37-.15-.4,0-.86.36-1.07.11-.06.25-.08.37-.1.08-.02.16,0,.25-.02.36-.04.72-.06,1.07.1.29.13.51.49.48.81-.03.33-.07.67-.07,1,0,.64.03,1.28.05,1.93,0,.05,0,.1.01.15.03,0,.03,0,.04,0,.85-.34,1.59-.83,2.26-1.44.03-.03.04-.09.03-.13-.05-.19-.12-.38-.15-.57-.03-.26-.09-.52.04-.79.1-.2.13-.44.18-.66.03-.14-.04-.2-.16-.13-.26.15-.56.19-.84.25-.06.01-.12,0-.18,0-.15,0-.3,0-.46,0-.08,0-.15.02-.23,0-.13-.01-.25-.15-.26-.26,0-.13.11-.16.2-.18.22-.04.45-.09.68-.11.18-.02.36,0,.54,0,.08,0,.16-.04.22-.08.1-.08.08-.15-.04-.18-.11-.02-.23-.04-.34-.03-.31,0-.62.03-.94.04-.2,0-.34-.11-.34-.27,0-.16.14-.28.34-.29.38,0,.77,0,1.15,0,.15,0,.29,0,.42.11.03.03.12.03.16,0,.03-.02.05-.09.05-.14,0-.15-.1-.23-.28-.23-.49-.01-.98-.02-1.46-.04-.08,0-.18-.02-.25-.07-.07-.05-.17-.17-.15-.22.03-.09.14-.15.22-.22.03-.02.09-.01.13-.01.51,0,1.01,0,1.52,0,.07,0,.15.03.22.06.26.12.39.36.48.62.03.08.09.18.06.26-.08.24-.14.46-.08.73.09.43.02.86-.08,1.29-.06.26-.06.53,0,.79ZM13.37,13.26h0c-.83,0-1.66,0-2.49,0-.1,0-.18,0-.18.14,0,.3-.02.6-.03.9,0,1.41,0,2.82-.01,4.23,0,.31,0,.32.32.31.04,0,.09-.01.13-.01.23,0,.46-.02.69-.01.35,0,.69.02,1.03.02.05,0,.12-.06.13-.11.07-.42.15-.84.2-1.26.02-.19.01-.39,0-.59-.01-.36-.22-.56-.57-.55-.19,0-.37,0-.56,0-.08,0-.18-.04-.23-.1-.32-.32-.48-.72-.52-1.16-.04-.47.24-.8.55-1.11.02-.02.07-.04.1-.04.27-.02.55-.04.82-.04.28,0,.56.04.84.04.72,0,1.45,0,2.17,0,.15,0,.24-.1.26-.25,0-.06,0-.13,0-.2.02-.16-.04-.21-.2-.21-.82,0-1.65,0-2.47,0ZM11.97,11.36c.3,0,.6,0,.91,0,.19,0,.31-.08.35-.24.07-.27,0-.55-.15-.63-.04-.02-.09-.04-.14-.04-.64,0-1.27,0-1.91,0-.18,0-.29.13-.31.3,0,.08,0,.15,0,.23,0,.26.12.38.39.38.29,0,.58,0,.87,0ZM14.94,11.35c.3,0,.6,0,.91,0,.2,0,.31-.08.36-.25.07-.26.02-.46-.16-.55-.11-.05-.23-.1-.34-.1-.57-.01-1.13-.01-1.7,0-.09,0-.22.09-.26.18-.05.12-.06.27-.05.4,0,.2.14.32.34.32.3,0,.6,0,.91,0ZM11.98,12.72c.31,0,.61,0,.92,0,.2,0,.32-.11.34-.31.01-.1,0-.21,0-.31-.02-.18-.14-.29-.32-.29-.62,0-1.25,0-1.87,0-.19,0-.3.12-.32.31,0,.09,0,.18,0,.26.01.22.14.34.36.34.3,0,.6,0,.9,0ZM14.89,12.68s0,0,0,0c.28,0,.56,0,.84,0,.34,0,.56-.3.47-.63-.03-.12-.09-.22-.23-.22-.68,0-1.36,0-2.04,0-.14,0-.23.11-.24.28-.03.32.03.51.17.55.04,0,.08,0,.11,0,.31,0,.61,0,.92,0ZM12.38,15.75c.16-.02.31-.06.47-.06.14,0,.17-.06.14-.18-.05-.2-.1-.4-.13-.6-.02-.13.03-.33-.05-.39-.09-.07-.27-.03-.41-.04-.37,0-.59.24-.6.63,0,.44.16.61.57.63Z"/>
        <path class="cls-1" d="M25.06,17.94c-.2-.08-.39-.15-.58-.22-.52-.2-1.04-.41-1.57-.6-.13-.05-.18-.1-.14-.25.17-.61.33-1.23.48-1.85.03-.12.07-.16.2-.14.43.06.86.11,1.31.17-.03.18-.06.33-.09.49-.05.25-.1.49-.16.74-.04.15-.16.24-.28.22-.11-.02-.21-.16-.19-.29.03-.2.07-.39.11-.58.02-.11,0-.14-.11-.17-.34-.08-.34-.09-.43.24-.07.26-.14.52-.21.78-.05.19,0,.31.19.38.29.11.58.2.87.29.19.06.35-.04.4-.22.18-.76.36-1.53.53-2.29,0-.01,0-.03,0-.06-.05,0-.1-.02-.16-.02-.77-.07-1.53-.14-2.3-.22-.11-.01-.16,0-.17.13-.22,1.83-.89,3.48-2.06,4.92-.01.01-.02.03-.04.07.66.55,1.32,1.1,2,1.67.51-.77,1.01-1.53,1.53-2.3-.48-.24-.94-.47-1.41-.71-.24.4-.47.78-.7,1.17-.01.02,0,.09.03.11.1.08.21.16.33.24.19-.28.37-.54.56-.82.14.08.27.15.42.23-.29.44-.56.86-.85,1.3-.39-.29-.75-.57-1.12-.85-.03-.02-.03-.1-.01-.14.3-.54.61-1.08.92-1.62.1-.17.23-.21.42-.13.63.27,1.27.55,1.9.83.08.03.13.07.08.17-.52,1.18-1.22,2.23-2.09,3.18,0,0-.02,0-.05.03-.1-.09-.21-.18-.32-.28-.69-.63-1.38-1.26-2.07-1.88-.12-.11-.13-.19-.04-.33.38-.61.77-1.23,1.12-1.86.4-.72.56-1.52.74-2.31.07-.28.13-.57.2-.85.08-.31.18-.38.49-.37.97.04,1.93.08,2.9.12.16,0,.2.05.2.21-.06,1.24-.33,2.43-.77,3.59,0,.03-.02.05-.05.1Z"/>
        <path class="cls-1" d="M16.59,2.48c-.04.14-.07.27-.12.38-.02.04-.1.07-.15.06-.22-.04-.44-.09-.66-.14-.1-.02-.16-.01-.19.11-.1.42-.15.32.24.44.31.09.62.16.92.25.11.03.16.02.19-.1.11-.34.23-.68.33-1.02.07-.21-.02-.35-.24-.4-.68-.15-1.35-.29-2.03-.42-.18-.04-.32.06-.34.25-.07.73-.14,1.45-.21,2.18,0,.02,0,.04,0,.08,1.89.22,3.6.9,5.1,2.12.56-.67,1.12-1.33,1.68-2.01-.78-.51-1.53-1.01-2.31-1.52-.24.47-.47.94-.71,1.42.41.24.81.48,1.23.73.09-.13.19-.25.3-.39-.1-.07-.2-.13-.29-.2-.14-.1-.28-.19-.42-.28-.08-.05-.1-.11-.05-.19.06-.1.1-.2.16-.32.44.28.87.56,1.31.84-.13.18-.26.35-.38.51-.15.19-.3.38-.44.58-.06.08-.1.1-.2.05-.57-.34-1.14-.68-1.72-1.01-.07-.04-.13-.07-.08-.18.31-.7.62-1.41.93-2.11,0-.02.03-.03.05-.06,1.23.52,2.32,1.25,3.32,2.16-.8.88-1.6,1.75-2.4,2.63-.09-.07-.17-.14-.25-.2-1.48-1.23-3.18-1.92-5.1-2.07-.14-.01-.19-.05-.18-.19.05-1.08.09-2.15.13-3.23,0-.16.09-.15.19-.14,1.08.04,2.13.26,3.16.6.15.05.29.1.44.15.1.03.11.08.08.17-.27.7-.54,1.4-.81,2.11-.03.08-.08.1-.16.08-.65-.17-1.3-.34-1.94-.5-.1-.02-.12-.07-.11-.16.05-.4.1-.81.15-1.21.01-.09.04-.13.14-.11.46.09.92.19,1.41.28Z"/>
        <path class="cls-1" d="M20.03,7.51c.88-.8,1.75-1.59,2.67-2.43.03.06.05.12.09.16.81.91,1.47,1.93,1.98,3.04.06.12.04.18-.09.23-.67.29-1.33.58-1.99.88-.1.05-.16.05-.22-.06-.33-.57-.67-1.14-1-1.7-.04-.06-.09-.12,0-.18.37-.28.74-.55,1.12-.85.28.43.56.85.85,1.29-.15.09-.28.16-.42.25-.18-.27-.36-.53-.54-.81-.12.07-.23.14-.34.22-.03.02-.05.08-.04.1.22.4.45.79.68,1.19.48-.24.94-.47,1.42-.71-.51-.78-1-1.53-1.51-2.31-.23.19-.43.36-.64.53-.41.34-.82.68-1.23,1.02-.1.08-.11.15-.04.25.17.25.35.49.52.74.76,1.14,1.24,2.4,1.41,3.76,0,.03.01.07.02.1.05.33.15.41.49.37.68-.07,1.35-.13,2.03-.2.05,0,.1-.01.16-.02,0-.04,0-.07,0-.1-.17-.74-.34-1.48-.52-2.21-.06-.26-.19-.33-.45-.25-.32.1-.65.22-.97.32-.1.03-.12.08-.1.18.1.38.2.75.29,1.13.02.09.06.11.15.1.38-.04.38-.04.31-.41-.03-.15-.05-.3-.09-.45-.04-.16.06-.2.17-.24.11-.04.22-.04.28.09.01.02.02.04.03.06.09.42.17.85.26,1.29-.17.03-.32.05-.48.08-.23.03-.46.06-.69.09-.21.02-.34-.05-.4-.26-.15-.59-.3-1.18-.44-1.77,0-.04.03-.12.06-.14.73-.29,1.47-.58,2.23-.88.1.3.21.58.3.86.29.93.46,1.89.51,2.86,0,.13-.03.18-.17.19-1.07.04-2.14.09-3.21.14-.12,0-.18-.01-.19-.15-.16-2-.89-3.76-2.2-5.27-.02-.03-.05-.06-.08-.11Z"/>
        <path class="cls-1" d="M7.89,3.51c.08.13.15.24.21.35.01.03-.02.11-.06.14-.2.14-.4.27-.6.4-.08.05-.1.1-.04.18.19.31.19.32.51.13.28-.16.56-.32.84-.49.04-.02.08-.1.07-.13-.22-.44-.44-.88-.67-1.34-.77.51-1.53,1-2.31,1.51.56.68,1.11,1.34,1.67,2.01.15-.11.28-.21.42-.31,1.35-.98,2.85-1.57,4.5-1.77.16-.02.21-.07.19-.23-.08-.75-.14-1.51-.21-2.26,0-.04-.02-.08-.03-.14-.06,0-.11.01-.16.03-.72.16-1.44.33-2.17.5-.19.04-.31.25-.26.43.07.23.14.46.22.69.12.34.26.42.61.33.22-.06.45-.11.67-.17.27-.07.35-.27.18-.5-.03-.04-.1-.05-.15-.05-.22.04-.44.08-.66.13-.1.02-.14,0-.17-.09-.03-.1-.07-.21-.12-.34.51-.11,1-.22,1.52-.33.02.09.03.17.04.25.05.36.1.73.16,1.09.02.1-.01.15-.12.17-.64.16-1.29.33-1.93.49-.05.01-.14-.02-.15-.06-.29-.73-.58-1.47-.88-2.22.07-.03.12-.06.18-.08,1.14-.44,2.33-.67,3.55-.74.14,0,.18.04.18.17.04,1.08.09,2.15.14,3.23,0,.1,0,.15-.13.16-2.02.17-3.81.9-5.34,2.24-.02.01-.04.02-.07.05-.79-.87-1.59-1.74-2.4-2.63.99-.92,2.09-1.63,3.33-2.18.07.14.13.28.19.41.26.58.51,1.16.77,1.73.05.1.04.16-.06.22-.57.33-1.14.68-1.72,1.01-.04.02-.14.02-.16,0-.27-.35-.54-.71-.81-1.06,0-.01-.01-.03-.02-.07.41-.27.83-.55,1.27-.84Z"/>
        <path class="cls-1" d="M7.5,20.02c.33.25.64.5.96.73,1.19.83,2.51,1.31,3.95,1.48.74.09.61.18.59.69-.03.92-.07,1.84-.11,2.77,0,.11-.02.17-.16.16-1.27-.05-2.49-.34-3.68-.77-.02,0-.04-.02-.06-.04.01-.04.02-.09.03-.13.26-.68.53-1.36.79-2.04.04-.12.09-.15.22-.11.57.15,1.14.28,1.71.43.22.06.31.18.28.41-.05.38-.1.75-.15,1.15-.09-.01-.16-.02-.24-.03-.32-.07-.65-.13-.97-.2-.16-.03-.31-.27-.26-.41.02-.05.14-.1.21-.09.23.03.45.09.68.14.1.02.15,0,.17-.1.08-.35.09-.35-.27-.45-.3-.08-.61-.16-.91-.24-.1-.03-.15,0-.18.1-.11.35-.24.7-.35,1.05-.06.17.02.31.19.35.77.18,1.55.36,2.33.54.01,0,.03,0,.06,0,0-.05.02-.1.03-.15.07-.73.14-1.46.2-2.2.02-.26.07-.24-.22-.28-1.48-.2-2.86-.69-4.1-1.53-.26-.17-.51-.36-.78-.56-.55.66-1.1,1.32-1.67,2,.77.51,1.54,1.01,2.32,1.52.1-.21.2-.41.3-.6.11-.23.23-.46.34-.69.04-.08.04-.14-.05-.19-.35-.2-.69-.41-1.04-.61-.03-.02-.11-.01-.13.02-.08.1-.15.21-.24.33.24.16.46.32.68.46.1.06.13.12.06.22-.06.09-.1.19-.16.3-.44-.29-.87-.56-1.31-.85.23-.31.45-.6.67-.88.24-.31.24-.31.57-.11.5.29.99.59,1.49.88.07.04.13.07.09.18-.32.71-.63,1.41-.94,2.12,0,.01-.02.02-.04.05-1.22-.52-2.32-1.25-3.32-2.16.8-.88,1.6-1.75,2.4-2.63Z"/>
        <path class="cls-1" d="M2.75,18.8c.51.78,1,1.54,1.5,2.3.04-.03.07-.04.09-.06.61-.5,1.21-1,1.82-1.5.08-.07.11-.11.03-.21-1.13-1.42-1.79-3.04-2.01-4.83-.02-.15-.07-.18-.21-.16-.76.08-1.52.14-2.28.21-.05,0-.1.01-.16.02,0,.06.01.11.02.15.17.73.34,1.45.51,2.18.04.17.23.3.39.25.27-.09.53-.18.79-.29.25-.12.35-.3.28-.57-.07-.28-.18-.55-.28-.82-.01-.03-.07-.07-.11-.07-.34,0-.38.06-.31.39.03.15.05.3.1.45.05.16-.05.21-.16.25-.12.05-.23.04-.3-.08-.01-.02-.03-.05-.03-.08-.08-.42-.17-.84-.25-1.27.05-.01.09-.03.13-.04.4-.06.81-.11,1.21-.17.11-.02.15.03.17.12.16.64.33,1.28.5,1.91.03.1,0,.15-.09.19-.68.26-1.36.53-2.04.8-.12.05-.17-.01-.19-.1-.17-.53-.36-1.06-.5-1.6-.17-.64-.25-1.3-.25-1.97,0-.11.02-.17.15-.18,1.09-.04,2.17-.09,3.26-.14.03,0,.05,0,.11,0,.15,2.08.9,3.93,2.31,5.51-.88.8-1.75,1.6-2.63,2.4-.93-.98-1.62-2.09-2.18-3.31.05-.03.08-.05.12-.07.67-.3,1.35-.6,2.01-.9.12-.06.17-.03.23.08.33.56.66,1.13,1,1.69.06.1.05.16-.04.23-.33.24-.65.49-.97.73-.03.02-.06.04-.11.07-.28-.43-.56-.85-.85-1.29.14-.07.27-.14.4-.19.03-.01.09.04.12.08.15.22.3.44.47.69.14-.09.27-.17.41-.27-.17-.29-.33-.57-.5-.85-.08-.13-.14-.32-.26-.36-.1-.03-.26.1-.39.17-.32.16-.65.32-.99.5Z"/>
        <path class="cls-1" d="M4.3,5.11c.87.8,1.75,1.59,2.63,2.39-.11.14-.21.26-.31.38-1.15,1.43-1.8,3.06-1.97,4.89,0,.04-.01.08-.01.11,0,.13-.06.15-.18.14-.62-.03-1.24-.05-1.86-.08-.46-.02-.91-.04-1.37-.06-.09,0-.16,0-.15-.13.05-1.3.33-2.54.8-3.77.16.06.31.11.46.17.57.22,1.13.44,1.7.66.12.05.16.1.12.23-.14.55-.27,1.11-.42,1.66-.07.27-.18.34-.45.31-.37-.05-.74-.1-1.12-.15.02-.12.04-.23.06-.33.07-.34.15-.68.2-1.02.02-.14.08-.16.2-.12.37.1.32.03.25.39-.03.15-.05.3-.09.45-.05.21.13.21.24.26.12.06.2,0,.24-.11.05-.16.09-.32.13-.48.06-.21.12-.42.17-.64,0-.04-.01-.13-.04-.14-.46-.17-.93-.32-1.41-.49-.04.2-.09.38-.12.56-.13.62-.26,1.25-.38,1.87-.05.24,0,.29.23.31.72.07,1.44.12,2.17.2.13.01.14-.05.15-.15.19-1.41.62-2.74,1.39-3.94.22-.34.46-.67.71-1.02-.66-.55-1.32-1.1-2-1.67-.51.77-1.01,1.53-1.53,2.31.48.24.94.47,1.42.71.13-.22.25-.42.38-.63.1-.17.2-.33.29-.5.02-.04.01-.12-.01-.15-.09-.08-.2-.15-.32-.24-.15.21-.28.41-.42.6-.18.26-.11.22-.38.09-.06-.03-.11-.06-.19-.1.28-.44.55-.86.83-1.31.06.04.11.08.16.12.31.23.61.47.92.69.1.07.11.12.05.22-.34.56-.67,1.12-1,1.69-.06.1-.11.13-.23.08-.66-.3-1.32-.59-1.99-.88-.11-.05-.14-.09-.09-.21.51-1.16,1.21-2.19,2.05-3.13.02-.02.04-.03.07-.06Z"/>
        <path class="cls-1" d="M15.4,24.14c.27-.03.51-.05.74-.07.36-.03.37-.02.43.37-.24.05-.49.1-.73.16-.25.05-.49.1-.77.16-.03-.22-.06-.42-.09-.62-.03-.23-.06-.47-.1-.7-.02-.1,0-.16.12-.19.65-.17,1.3-.34,1.94-.51.09-.02.13,0,.16.08.27.69.53,1.38.8,2.07.05.13-.03.16-.11.19-.46.15-.92.32-1.39.45-.68.18-1.38.29-2.08.3-.26,0-.26,0-.27-.25-.04-1.03-.08-2.05-.13-3.08,0-.14.02-.19.17-.2,1.98-.17,3.72-.89,5.23-2.18.03-.02.06-.05.09-.07,0,0,.02,0,.05-.02.23.25.46.5.69.76.53.58,1.06,1.16,1.59,1.74.07.07.1.12,0,.21-.94.87-2,1.53-3.16,2.06-.01,0-.03,0-.08.02-.33-.75-.67-1.5-1.01-2.27.21-.12.4-.24.59-.35.41-.24.82-.48,1.23-.73.1-.06.16-.05.23.04.26.35.53.7.81,1.07-.43.28-.85.56-1.29.85-.07-.12-.15-.24-.2-.36-.01-.03.04-.12.08-.15.22-.15.44-.3.69-.46-.08-.14-.16-.27-.25-.41-.33.19-.65.37-.97.55-.29.17-.29.17-.15.47.18.37.36.74.55,1.13.78-.5,1.54-1,2.33-1.51-.56-.68-1.11-1.34-1.68-2.02-1.5,1.21-3.21,1.91-5.13,2.12.08.88.16,1.74.24,2.61.06,0,.1,0,.14-.02.74-.17,1.49-.34,2.23-.51.22-.05.29-.2.22-.4-.09-.25-.16-.5-.26-.74-.13-.33-.29-.4-.64-.31-.18.05-.35.13-.53.18-.16.04-.24.14-.27.29-.02.08-.04.17-.07.27Z"/>
        <path class="cls-1" d="M15.22,14.84c.34,0,.68,0,1.02,0,.13,0,.25.03.26.19.01.15-.11.21-.23.24-.11.02-.23.02-.34.04-.05,0-.12.05-.12.08,0,.16-.02.33.03.48.02.07.17.1.27.14.09.03.19.03.27.07.16.08.18.21.05.34-.14.15-.32.15-.49.08-.3-.11-.51-.3-.56-.65-.02-.15-.11-.29-.04-.45,0-.01-.07-.08-.11-.09-.09-.02-.16.01-.17.12,0,.12-.01.24-.03.36-.05.41-.49.77-.86.74-.14-.01-.31-.14-.32-.26,0-.11.1-.22.26-.25.04,0,.09,0,.13-.01.3-.03.48-.39.33-.64-.02-.04-.09-.06-.14-.06-.1-.01-.21,0-.31-.01-.16-.02-.27-.13-.25-.25.02-.16.14-.2.27-.2.36,0,.71,0,1.07,0Z"/>
      </g>
      <g>
        <path class="cls-1" d="M33.34,26.42c-.54,0-.96-.45-.96-.99v-.65c0-.57.42-.99.96-.99h6.16c.56,0,1.02-.42,1.02-.99v-7.31c0-.57-.45-.99-1.02-.99h-6.16c-.54,0-.96-.42-.96-.96v-.68c0-.54.42-.99.96-.99h6.16c.54,0,1.02-.42,1.02-.96v-6.83c0-.54-.48-.99-1.02-.99h-6.16c-.54,0-.96-.42-.96-.99v-.65c0-.54.42-.96.96-.96h16.86c.57,0,.99.42.99.96v.65c0,.56-.42.99-.99.99h-6.1c-.54,0-.99.45-.99.99v6.83c0,.54.45.96.99.96h6.1c.57,0,.99.45.99.99v.68c0,.54-.42.96-.99.96h-6.1c-.54,0-.99.42-.99.99v7.31c0,.57.45.99.99.99h3.5c.56,0,.99-.42.99-.99v-3.25c0-.54.45-1.02,1.02-1.02h.65c.54,0,.96.48.96,1.02v3.78c0,.54-.31,1.3-.68,1.64l-.71.73c-.42.42-1.13.7-1.69.7h-14.8Z"/>
        <path class="cls-1" d="M71.43,5.98c-.34.42-1.1.7-1.67.7h-12.11c-.65,0-1.04.42-1.04.99v.73c0,.56.4,1.02,1.04,1.02h14.2c.54,0,.96.42.96.99v.6c0,.54-.42,1.02-.96,1.02h-14.82c-.57,0-1.3-.31-1.67-.73l-.71-.71c-.37-.34-.68-1.1-.68-1.64V1.46c0-.54.42-.96.96-.96h.68c.57,0,.99.42.99.96v1.64c0,.56.4.99,1.04.99h11.61c.54,0,.96-.42.96-.99v-1.64c0-.54.42-.96.99-.96h.65c.54,0,.96.42.96.96v2.17c0,.54-.31,1.3-.68,1.67l-.71.68ZM71.43,25.72c-.34.42-1.1.7-1.67.7h-14.77c-.57,0-.99-.45-.99-.99v-10.67c0-.56.42-.99.99-.99h16.86c.54,0,.96.42.96.99v8.61c0,.54-.31,1.3-.68,1.64l-.71.71ZM56.63,17.81c0,.56.4.99,1.04.99h11.58c.54,0,.96-.42.96-.99v-.48c0-.54-.42-.99-.96-.99h-11.58c-.65,0-1.04.45-1.04.99v.48ZM56.63,22.84c0,.57.4.99,1.04.99h11.58c.54,0,.96-.42.96-.99v-.42c0-.56-.42-1.02-.96-1.02h-11.58c-.65,0-1.04.45-1.04,1.02v.42Z"/>
        <path class="cls-1" d="M81.59,12.36c.2-.17.31-.28.31-.37,0-.11-.17-.17-.48-.17h-4.89c-.54,0-.96-.42-.96-.99v-.65c0-.54.42-1.02.96-1.02h6.16c.56,0,1.02-.22,1.02-.57s-.48-.62-1.02-.62h-6.16c-.54,0-.96-.42-.96-.99v-.65c0-.54.42-.99.96-.99h6.16c.54,0,1.02-.25,1.02-.56,0-.37-.48-.65-1.02-.65h-6.16c-.54,0-.96-.42-.96-.96v-.68c0-.56.42-.99.96-.99h6.16c.56,0,1.02-.2,1.02-.51s.4-.51.96-.51h.65c.57,0,.99.2.99.51s.42.51.99.51h6.16c.54,0,.96.42.96.99v.68c0,.54-.42.96-.96.96h-6.16c-.54,0-.99.28-.99.65,0,.31.45.56.99.56h6.16c.54,0,.96.45.96.99v.65c0,.56-.42.99-.96.99h-6.16c-.54,0-.99.28-.99.62s.42.57.99.57h6.16c.54,0,.96.48.96,1.02v.65c0,.57-.42.99-.96.99h-4.88c-.31,0-.48.06-.48.2,0,.08.11.2.31.34l.62.42c.45.31,1.27.54,1.84.54h2.6c.54,0,.96.45.96.99v.62c0,.57-.42.99-.96.99h-3.5c-.54,0-1.33-.23-1.81-.54l-2.34-1.64c-.25-.17-.54-.25-.88-.25-.28,0-.54.09-.79.23l-2.54,1.69c-.45.31-1.21.51-1.81.51h-3.25c-.54,0-.96-.42-.96-.99v-.62c0-.54.42-.99.96-.99h2.57c.56,0,1.38-.23,1.84-.54l.65-.42ZM76.54,24.5c-.54,0-.96-.48-.96-1.02v-.65c0-.56.42-.99.96-.99h6.16c.56,0,1.02-.34,1.02-.88,0-.48-.48-.9-1.02-.9h-6.16c-.54,0-.96-.45-.96-.99v-.65c0-.54.42-.96.96-.96h6.16c.54,0,1.02-.28,1.02-.59,0-.37.4-.59.96-.59h.65c.57,0,.99.25.99.59,0,.31.45.59.99.59h6.16c.54,0,.96.42.96.96v.65c0,.54-.42.99-.96.99h-6.16c-.54,0-.99.42-.99.9,0,.54.42.88.99.88h6.16c.54,0,.96.42.96.99v.65c0,.54-.42,1.02-.96,1.02h-6.16c-.54,0-.99.42-.99.96s-.45.96-.99.96h-.65c-.54,0-.96-.42-.96-.96s-.48-.96-1.02-.96h-6.16Z"/>
        <path class="cls-1" d="M104.83,14.14c.03-.09.14-.31.28-.65.14-.31.2-.54.2-.65s-.08-.2-.28-.28c-.2-.09-.45-.11-.73-.11h-6.16c-.54,0-.96-.42-.96-.99v-.65c0-.54.42-.99.96-.99h6.16c.56,0,1.02-.42,1.02-.99v-4.74c0-.54-.48-.99-1.02-.99h-6.16c-.54,0-.96-.42-.96-.99v-.65c0-.54.42-.96.96-.96h16.91c.54,0,.96.42.96.96v.65c0,.56-.42.99-.96.99h-6.16c-.54,0-.99.45-.99.99v4.74c0,.56.45.99.99.99h6.16c.54,0,.96.45.96.99v.65c0,.57-.42.99-.96.99h-6.16c-.54,0-.99.17-.99.4,0,.2.14.62.45,1.27l4.57,8.81c.25.48.9.88,1.47.88h.65c.54,0,.96.42.96.99v.65c0,.54-.42.99-.96.99h-2.23c-.56,0-1.21-.37-1.47-.9l-4.29-8.22c-.14-.25-.31-.4-.51-.4-.17,0-.31.14-.42.4l-4.29,8.22c-.25.54-.88.9-1.44.9h-2.26c-.54,0-.96-.45-.96-.99v-.65c0-.57.42-.99.96-.99h.68c.57,0,1.19-.39,1.44-.88l4.57-8.78Z"/>
        <path class="cls-1" d="M119.73,3.92c-.54,0-.96-.45-.96-.99v-.37c0-.54.42-.96.96-.96h14.29c.54,0,.99-.25.99-.56s.45-.54.99-.54h.62c.57,0,.99.34.99.82,0,.42-.23.85-.71,1.33l-.56.56c-.42.42-1.1.71-1.69.71h-14.91ZM119.73,8.66c-.54,0-.96-.42-.96-.99v-1.83c0-.54.42-.96.96-.96h16.86c.57,0,1.02.42,1.02.96v1.83c0,.56-.45.99-1.02.99h-.59c-.54,0-.99-.25-.99-.57,0-.37-.42-.62-.99-.62h-11.61c-.59,0-1.04.25-1.04.62,0,.31-.42.57-.99.57h-.65ZM119.73,26.42c-.54,0-.96-.45-.96-.99v-6.27c0-.56.42-1.02.96-1.02h4.01c.51,0,.76-.25.76-.79s-.26-.76-.76-.76h-3.47c-.57,0-.99-.42-.99-.96v-5.39c0-.54.42-.99.99-.99h15.81c.54,0,.99.45.99.99v3.39c0,.6-.28,1.27-.71,1.69l-.56.57c-.42.42-1.1.7-1.69.7h-6.3c-.51,0-.76.26-.76.76,0,.54.25.79.76.79h8.78c.57,0,1.02.45,1.02,1.02v4.29c0,.6-.28,1.27-.71,1.69l-.56.57c-.42.42-1.1.7-1.69.7h-14.91ZM121.37,22.84c0,.57.45,1.02,1.04,1.02h11.61c.54,0,.99-.45.99-1.02v-1.1c0-.56-.45-1.02-.99-1.02h-11.61c-.59,0-1.04.45-1.04,1.02v1.1ZM121.88,13.09c0,.54.48.96,1.02.96h10.59c.54,0,1.02-.42,1.02-.96v-.34c0-.54-.48-.96-1.02-.96h-10.59c-.54,0-1.02.42-1.02.96v.34Z"/>
      </g>
    </g>
  </g>
</svg>